<svg xmlns="http://www.w3.org/2000/svg" viewBox="0 0 48 32" role="img" aria-label="Flag of the United States">
  <rect width="48" height="32" fill="#fff"/>
  <path fill="#b22234" d="M0 0h48v2.46H0zm0 4.92h48v2.46H0zm0 4.92h48v2.46H0zm0 4.92h48v2.46H0zm0 4.92h48v2.46H0zm0 4.92h48v2.46H0zm0 4.92h48V32H0z"/>
  <rect width="20" height="17.23" fill="#3c3b6e"/>
  <g fill="#fff">
    <circle cx="3" cy="3" r=".9"/><circle cx="7" cy="3" r=".9"/><circle cx="11" cy="3" r=".9"/><circle cx="15" cy="3" r=".9"/>
    <circle cx="5" cy="6" r=".9"/><circle cx="9" cy="6" r=".9"/><circle cx="13" cy="6" r=".9"/><circle cx="17" cy="6" r=".9"/>
    <circle cx="3" cy="9" r=".9"/><circle cx="7" cy="9" r=".9"/><circle cx="11" cy="9" r=".9"/><circle cx="15" cy="9" r=".9"/>
    <circle cx="5" cy="12" r=".9"/><circle cx="9" cy="12" r=".9"/><circle cx="13" cy="12" r=".9"/><circle cx="17" cy="12" r=".9"/>
    <circle cx="3" cy="15" r=".9"/><circle cx="7" cy="15" r=".9"/><circle cx="11" cy="15" r=".9"/><circle cx="15" cy="15" r=".9"/>
  </g>
</svg>
